<svg width="95" height="25" viewBox="0 0 95 25" fill="none" xmlns="http://www.w3.org/2000/svg">
<path d="M0.8 1.6H5.536V1.92C5.088 1.96267 4.75733 2.12267 4.544 2.4C4.33067 2.67733 4.384 3.2 4.704 3.968L12 21.472L19.008 3.904C19.1573 3.52 19.2213 3.2 19.2 2.944C19.1787 2.688 19.0933 2.48533 18.944 2.336C18.816 2.18667 18.6453 2.08 18.432 2.016C18.24 1.952 18.048 1.92 17.856 1.92V1.6H21.472V1.92C21.0667 2.00533 20.6827 2.176 20.32 2.432C19.9573 2.688 19.6267 3.2 19.328 3.968L11.328 24H10.976L2.624 3.968C2.304 3.2 2.016 2.688 1.76 2.432C1.52533 2.176 1.20533 2.00533 0.8 1.92V1.6ZM27.0468 24.32C25.8948 24.32 24.9348 24.2133 24.1668 24C23.4201 23.7867 22.8228 23.552 22.3748 23.296C21.8414 23.0187 21.4361 22.688 21.1588 22.304V18.88H21.3828C21.4894 19.2213 21.6388 19.68 21.8307 20.256C22.0441 20.832 22.3534 21.3973 22.7588 21.952C23.1854 22.5067 23.7401 22.9867 24.4227 23.392C25.1268 23.7973 26.0014 24 27.0468 24C28.4334 24 29.5748 23.7333 30.4708 23.2C31.3668 22.6453 31.8148 21.8773 31.8148 20.896C31.8148 20.192 31.5588 19.616 31.0468 19.168C30.5348 18.6987 29.8841 18.2933 29.0948 17.952C28.3268 17.6107 27.4948 17.2907 26.5988 16.992C25.7028 16.672 24.8601 16.3093 24.0708 15.904C23.3028 15.4987 22.6628 15.0187 22.1508 14.464C21.6388 13.888 21.3828 13.152 21.3828 12.256C21.3828 10.8907 21.8734 9.792 22.8548 8.96C23.8574 8.10667 25.2548 7.68 27.0468 7.68C27.6654 7.68 28.2414 7.744 28.7748 7.872C29.3081 7.97867 29.7988 8.11733 30.2468 8.288C30.7161 8.45867 31.1321 8.64 31.4948 8.832C31.8574 9.00267 32.1561 9.16267 32.3908 9.312V12.448H32.1348C32.0921 12.2987 31.9641 11.9893 31.7508 11.52C31.5588 11.0293 31.2601 10.528 30.8548 10.016C30.4494 9.48267 29.9374 9.01333 29.3188 8.608C28.7001 8.20267 27.9428 8 27.0468 8C24.2094 8 22.7908 9.01333 22.7908 11.04C22.7908 11.8293 23.0468 12.4693 23.5588 12.96C24.0708 13.4507 24.7108 13.888 25.4788 14.272C26.2681 14.6347 27.1108 14.9653 28.0068 15.264C28.9028 15.5627 29.7348 15.9147 30.5028 16.32C31.2921 16.704 31.9428 17.184 32.4548 17.76C32.9668 18.3147 33.2228 19.04 33.2228 19.936C33.2228 21.1947 32.7001 22.24 31.6548 23.072C30.6308 23.904 29.0948 24.32 27.0468 24.32ZM38.0125 21.696V3.584C38.0125 2.83733 37.8738 2.34667 37.5965 2.112C37.3192 1.856 36.9778 1.68533 36.5725 1.6V1.28L39.9325 0.959999V17.312L47.3885 10.272C47.6232 10.016 47.7618 9.77067 47.8045 9.536C47.8472 9.30133 47.8258 9.09867 47.7405 8.928C47.6552 8.75733 47.5272 8.61867 47.3565 8.512C47.1858 8.384 47.0045 8.32 46.8125 8.32V8H51.0045V8.32C50.5992 8.42667 50.1192 8.64 49.5645 8.96C49.0098 9.25867 48.3912 9.728 47.7085 10.368L43.9005 13.92L49.5645 21.568C50.0552 22.2507 50.5245 22.752 50.9725 23.072C51.4205 23.3707 51.8472 23.5733 52.2525 23.68V24H47.4525V23.68C47.9005 23.6373 48.1138 23.488 48.0925 23.232C48.0712 22.9547 47.8045 22.464 47.2925 21.76L42.5245 15.232L39.9325 17.664V21.696C39.9325 22.08 39.9645 22.3893 40.0285 22.624C40.1138 22.8587 40.2205 23.0507 40.3485 23.2C40.4765 23.328 40.6258 23.4347 40.7965 23.52C40.9885 23.584 41.1805 23.6373 41.3725 23.68V24H36.5725V23.68C36.7645 23.6373 36.9458 23.584 37.1165 23.52C37.3085 23.4347 37.4685 23.328 37.5965 23.2C37.7245 23.0507 37.8205 22.8587 37.8845 22.624C37.9698 22.3893 38.0125 22.08 38.0125 21.696ZM54.8225 23.68C55.0145 23.6373 55.1958 23.584 55.3665 23.52C55.5585 23.4347 55.7185 23.328 55.8465 23.2C55.9745 23.0507 56.0705 22.8587 56.1345 22.624C56.2198 22.3893 56.2625 22.08 56.2625 21.696V10.464C56.2625 9.71733 56.1238 9.22667 55.8465 8.992C55.5692 8.736 55.2278 8.56533 54.8225 8.48V8.16L58.1825 7.84V21.696C58.1825 22.08 58.2145 22.3893 58.2785 22.624C58.3638 22.8587 58.4705 23.0507 58.5985 23.2C58.7265 23.328 58.8758 23.4347 59.0465 23.52C59.2385 23.584 59.4305 23.6373 59.6225 23.68V24H54.8225V23.68ZM57.2225 1.28C57.6065 1.28 57.9158 1.39733 58.1505 1.632C58.3852 1.86667 58.5025 2.176 58.5025 2.56C58.5025 2.944 58.3852 3.25333 58.1505 3.488C57.9158 3.72267 57.6065 3.84 57.2225 3.84C56.8385 3.84 56.5292 3.72267 56.2945 3.488C56.0598 3.25333 55.9425 2.944 55.9425 2.56C55.9425 2.176 56.0598 1.86667 56.2945 1.632C56.5292 1.39733 56.8385 1.28 57.2225 1.28ZM62.9788 23.68C63.1708 23.6373 63.3521 23.584 63.5228 23.52C63.7148 23.4347 63.8748 23.328 64.0028 23.2C64.1308 23.0507 64.2268 22.8587 64.2908 22.624C64.3761 22.3893 64.4188 22.08 64.4188 21.696V10.464C64.4188 9.71733 64.2801 9.22667 64.0028 8.992C63.7254 8.736 63.3841 8.56533 62.9788 8.48V8.16L66.3388 7.84V10.88C66.8081 10.0267 67.5121 9.28 68.4508 8.64C69.3894 8 70.5414 7.68 71.9068 7.68C72.9948 7.68 73.9334 7.85067 74.7228 8.192C75.5121 8.53333 76.1628 8.98133 76.6748 9.536C77.1868 10.0693 77.5601 10.6773 77.7948 11.36C78.0508 12.0427 78.1788 12.7253 78.1788 13.408V21.696C78.1788 22.08 78.2108 22.3893 78.2748 22.624C78.3601 22.8587 78.4668 23.0507 78.5948 23.2C78.7228 23.328 78.8721 23.4347 79.0428 23.52C79.2348 23.584 79.4268 23.6373 79.6188 23.68V24H74.8188V23.68C75.0108 23.6373 75.1921 23.584 75.3628 23.52C75.5548 23.4347 75.7148 23.328 75.8428 23.2C75.9708 23.0507 76.0668 22.8587 76.1308 22.624C76.2161 22.3893 76.2588 22.08 76.2588 21.696V14.176C76.2588 12.2347 75.8961 10.72 75.1708 9.632C74.4668 8.544 73.2721 8 71.5868 8C70.8828 8 70.2108 8.13867 69.5708 8.416C68.9521 8.69333 68.3974 9.06667 67.9068 9.536C67.4374 9.984 67.0534 10.5067 66.7548 11.104C66.4774 11.7013 66.3388 12.3093 66.3388 12.928V21.696C66.3388 22.08 66.3708 22.3893 66.4348 22.624C66.5201 22.8587 66.6268 23.0507 66.7548 23.2C66.8828 23.328 67.0321 23.4347 67.2028 23.52C67.3948 23.584 67.5868 23.6373 67.7788 23.68V24H62.9788V23.68ZM88.5468 24.32C87.3948 24.32 86.4348 24.2133 85.6668 24C84.9201 23.7867 84.3228 23.552 83.8748 23.296C83.3414 23.0187 82.9361 22.688 82.6588 22.304V18.88H82.8828C82.9894 19.2213 83.1388 19.68 83.3307 20.256C83.5441 20.832 83.8534 21.3973 84.2588 21.952C84.6854 22.5067 85.2401 22.9867 85.9227 23.392C86.6268 23.7973 87.5014 24 88.5468 24C89.9334 24 91.0748 23.7333 91.9708 23.2C92.8668 22.6453 93.3148 21.8773 93.3148 20.896C93.3148 20.192 93.0588 19.616 92.5468 19.168C92.0348 18.6987 91.3841 18.2933 90.5948 17.952C89.8268 17.6107 88.9948 17.2907 88.0988 16.992C87.2028 16.672 86.3601 16.3093 85.5708 15.904C84.8028 15.4987 84.1628 15.0187 83.6508 14.464C83.1388 13.888 82.8828 13.152 82.8828 12.256C82.8828 10.8907 83.3734 9.792 84.3548 8.96C85.3574 8.10667 86.7548 7.68 88.5468 7.68C89.1654 7.68 89.7414 7.744 90.2748 7.872C90.8081 7.97867 91.2988 8.11733 91.7468 8.288C92.2161 8.45867 92.6321 8.64 92.9948 8.832C93.3574 9.00267 93.6561 9.16267 93.8908 9.312V12.448H93.6348C93.5921 12.2987 93.4641 11.9893 93.2508 11.52C93.0588 11.0293 92.7601 10.528 92.3548 10.016C91.9494 9.48267 91.4374 9.01333 90.8188 8.608C90.2001 8.20267 89.4428 8 88.5468 8C85.7094 8 84.2908 9.01333 84.2908 11.04C84.2908 11.8293 84.5468 12.4693 85.0588 12.96C85.5708 13.4507 86.2108 13.888 86.9788 14.272C87.7681 14.6347 88.6108 14.9653 89.5068 15.264C90.4028 15.5627 91.2348 15.9147 92.0028 16.32C92.7921 16.704 93.4428 17.184 93.9548 17.76C94.4668 18.3147 94.7228 19.04 94.7228 19.936C94.7228 21.1947 94.2001 22.24 93.1548 23.072C92.1308 23.904 90.5948 24.32 88.5468 24.32Z" fill="white"/>
</svg>
