<svg width="2349" height="584" viewBox="0 0 2349 584" fill="none" xmlns="http://www.w3.org/2000/svg">
<path d="M2.98023e-07 16H118.4V24C107.2 25.0666 98.9333 29.0667 93.6 36C88.2667 42.9333 89.6 56 97.6 75.2L280 512.8L455.2 73.6C458.933 64 460.533 56 460 49.6C459.467 43.2 457.333 38.1333 453.6 34.4C450.4 30.6666 446.133 28 440.8 26.4C436 24.8 431.2 24 426.4 24V16H516.8V24C506.667 26.1333 497.067 30.4 488 36.8C478.933 43.2 470.667 56 463.2 75.2L263.2 576H254.4L45.6 75.2C37.6 56 30.4 43.2 24 36.8C18.1333 30.4 10.1333 26.1333 2.98023e-07 24V16ZM656.169 584C627.369 584 603.369 581.333 584.169 576C565.502 570.667 550.569 564.8 539.369 558.4C526.035 551.467 515.902 543.2 508.969 533.6V448H514.569C517.235 456.533 520.969 468 525.769 482.4C531.102 496.8 538.835 510.933 548.969 524.8C559.635 538.667 573.502 550.667 590.569 560.8C608.169 570.933 630.035 576 656.169 576C690.835 576 719.369 569.333 741.769 556C764.169 542.133 775.369 522.933 775.369 498.4C775.369 480.8 768.969 466.4 756.169 455.2C743.369 443.467 727.102 433.333 707.369 424.8C688.169 416.267 667.369 408.267 644.969 400.8C622.569 392.8 601.502 383.733 581.769 373.6C562.569 363.467 546.569 351.467 533.769 337.6C520.969 323.2 514.569 304.8 514.569 282.4C514.569 248.267 526.835 220.8 551.369 200C576.435 178.667 611.369 168 656.169 168C671.635 168 686.035 169.6 699.369 172.8C712.702 175.467 724.969 178.933 736.169 183.2C747.902 187.467 758.302 192 767.369 196.8C776.435 201.067 783.902 205.067 789.769 208.8V287.2H783.369C782.302 283.467 779.102 275.733 773.769 264C768.969 251.733 761.502 239.2 751.369 226.4C741.235 213.067 728.435 201.333 712.969 191.2C697.502 181.067 678.569 176 656.169 176C585.235 176 549.769 201.333 549.769 252C549.769 271.733 556.169 287.733 568.969 300C581.769 312.267 597.769 323.2 616.969 332.8C636.702 341.867 657.769 350.133 680.169 357.6C702.569 365.067 723.369 373.867 742.569 384C762.302 393.6 778.569 405.6 791.369 420C804.169 433.867 810.569 452 810.569 474.4C810.569 505.867 797.502 532 771.369 552.8C745.769 573.6 707.369 584 656.169 584ZM930.313 518.4V65.6C930.313 46.9333 926.846 34.6666 919.913 28.8C912.979 22.4 904.446 18.1333 894.313 16V7.99997L978.313 -2.28882e-05V408.8L1164.71 232.8C1170.58 226.4 1174.05 220.267 1175.11 214.4C1176.18 208.533 1175.65 203.467 1173.51 199.2C1171.38 194.933 1168.18 191.467 1163.91 188.8C1159.65 185.6 1155.11 184 1150.31 184V176H1255.11V184C1244.98 186.667 1232.98 192 1219.11 200C1205.25 207.467 1189.78 219.2 1172.71 235.2L1077.51 324L1219.11 515.2C1231.38 532.267 1243.11 544.8 1254.31 552.8C1265.51 560.267 1276.18 565.333 1286.31 568V576H1166.31V568C1177.51 566.933 1182.85 563.2 1182.31 556.8C1181.78 549.867 1175.11 537.6 1162.31 520L1043.11 356.8L978.313 417.6V518.4C978.313 528 979.113 535.733 980.713 541.6C982.846 547.467 985.513 552.267 988.713 556C991.913 559.2 995.646 561.867 999.913 564C1004.71 565.6 1009.51 566.933 1014.31 568V576H894.313V568C899.113 566.933 903.646 565.6 907.913 564C912.713 561.867 916.713 559.2 919.913 556C923.113 552.267 925.513 547.467 927.113 541.6C929.246 535.733 930.313 528 930.313 518.4ZM1350.56 568C1355.36 566.933 1359.9 565.6 1364.16 564C1368.96 561.867 1372.96 559.2 1376.16 556C1379.36 552.267 1381.76 547.467 1383.36 541.6C1385.5 535.733 1386.56 528 1386.56 518.4V237.6C1386.56 218.933 1383.1 206.667 1376.16 200.8C1369.23 194.4 1360.7 190.133 1350.56 188V180L1434.56 172V518.4C1434.56 528 1435.36 535.733 1436.96 541.6C1439.1 547.467 1441.76 552.267 1444.96 556C1448.16 559.2 1451.9 561.867 1456.16 564C1460.96 565.6 1465.76 566.933 1470.56 568V576H1350.56V568ZM1410.56 7.99997C1420.16 7.99997 1427.9 10.9333 1433.76 16.8C1439.63 22.6666 1442.56 30.4 1442.56 40C1442.56 49.6 1439.63 57.3333 1433.76 63.2C1427.9 69.0666 1420.16 72 1410.56 72C1400.96 72 1393.23 69.0666 1387.36 63.2C1381.5 57.3333 1378.56 49.6 1378.56 40C1378.56 30.4 1381.5 22.6666 1387.36 16.8C1393.23 10.9333 1400.96 7.99997 1410.56 7.99997ZM1554.47 568C1559.27 566.933 1563.8 565.6 1568.07 564C1572.87 561.867 1576.87 559.2 1580.07 556C1583.27 552.267 1585.67 547.467 1587.27 541.6C1589.4 535.733 1590.47 528 1590.47 518.4V237.6C1590.47 218.933 1587 206.667 1580.07 200.8C1573.14 194.4 1564.6 190.133 1554.47 188V180L1638.47 172V248C1650.2 226.667 1667.8 208 1691.27 192C1714.74 176 1743.54 168 1777.67 168C1804.87 168 1828.34 172.267 1848.07 180.8C1867.8 189.333 1884.07 200.533 1896.87 214.4C1909.67 227.733 1919 242.933 1924.87 260C1931.27 277.067 1934.47 294.133 1934.47 311.2V518.4C1934.47 528 1935.27 535.733 1936.87 541.6C1939 547.467 1941.67 552.267 1944.87 556C1948.07 559.2 1951.8 561.867 1956.07 564C1960.87 565.6 1965.67 566.933 1970.47 568V576H1850.47V568C1855.27 566.933 1859.8 565.6 1864.07 564C1868.87 561.867 1872.87 559.2 1876.07 556C1879.27 552.267 1881.67 547.467 1883.27 541.6C1885.4 535.733 1886.47 528 1886.47 518.4V330.4C1886.47 281.867 1877.4 244 1859.27 216.8C1841.67 189.6 1811.8 176 1769.67 176C1752.07 176 1735.27 179.467 1719.27 186.4C1703.8 193.333 1689.94 202.667 1677.67 214.4C1665.94 225.6 1656.34 238.667 1648.87 253.6C1641.94 268.533 1638.47 283.733 1638.47 299.2V518.4C1638.47 528 1639.27 535.733 1640.87 541.6C1643 547.467 1645.67 552.267 1648.87 556C1652.07 559.2 1655.8 561.867 1660.07 564C1664.87 565.6 1669.67 566.933 1674.47 568V576H1554.47V568ZM2193.67 584C2164.87 584 2140.87 581.333 2121.67 576C2103 570.667 2088.07 564.8 2076.87 558.4C2063.54 551.467 2053.4 543.2 2046.47 533.6V448H2052.07C2054.74 456.533 2058.47 468 2063.27 482.4C2068.6 496.8 2076.34 510.933 2086.47 524.8C2097.14 538.667 2111 550.667 2128.07 560.8C2145.67 570.933 2167.54 576 2193.67 576C2228.34 576 2256.87 569.333 2279.27 556C2301.67 542.133 2312.87 522.933 2312.87 498.4C2312.87 480.8 2306.47 466.4 2293.67 455.2C2280.87 443.467 2264.6 433.333 2244.87 424.8C2225.67 416.267 2204.87 408.267 2182.47 400.8C2160.07 392.8 2139 383.733 2119.27 373.6C2100.07 363.467 2084.07 351.467 2071.27 337.6C2058.47 323.2 2052.07 304.8 2052.07 282.4C2052.07 248.267 2064.34 220.8 2088.87 200C2113.94 178.667 2148.87 168 2193.67 168C2209.14 168 2223.54 169.6 2236.87 172.8C2250.2 175.467 2262.47 178.933 2273.67 183.2C2285.4 187.467 2295.8 192 2304.87 196.8C2313.94 201.067 2321.4 205.067 2327.27 208.8V287.2H2320.87C2319.8 283.467 2316.6 275.733 2311.27 264C2306.47 251.733 2299 239.2 2288.87 226.4C2278.74 213.067 2265.94 201.333 2250.47 191.2C2235 181.067 2216.07 176 2193.67 176C2122.74 176 2087.27 201.333 2087.27 252C2087.27 271.733 2093.67 287.733 2106.47 300C2119.27 312.267 2135.27 323.2 2154.47 332.8C2174.2 341.867 2195.27 350.133 2217.67 357.6C2240.07 365.067 2260.87 373.867 2280.07 384C2299.8 393.6 2316.07 405.6 2328.87 420C2341.67 433.867 2348.07 452 2348.07 474.4C2348.07 505.867 2335 532 2308.87 552.8C2283.27 573.6 2244.87 584 2193.67 584Z" fill="black"/>
</svg>
